<?xml version="1.0" encoding="utf-8"?>
<!-- Generator: Adobe Illustrator 24.2.1, SVG Export Plug-In . SVG Version: 6.00 Build 0)  -->
<svg version="1.1" id="Layer_1" xmlns="http://www.w3.org/2000/svg" xmlns:xlink="http://www.w3.org/1999/xlink" x="0px" y="0px"
	 viewBox="0 0 362 362" style="enable-background:new 0 0 362 362;" xml:space="preserve">
<style type="text/css">
	.st0{fill:#FFFFFF;}
</style>
<path class="st0" d="M291.8,181c0,1.2-5.6,8.5-8,11.7L177.4,352.4c-3.8,5.8-10.2,9.6-17.7,9.6H95.8c-15.4-12.3-22.5-19.4-21.3-21.3
	c0.9-1.4,6.4,0.1,16.5,4.4c28.6-54.7,57.1-109.4,85.7-164.1C148,126.6,119.3,72.1,90.6,17.7c-9.8,3.9-15.2,5.1-16.1,3.6
	c-1.2-2,5.9-9.1,21.3-21.3h63.9c7.5,0,13.8,3.8,17.7,9.6l106.5,159.7C286.2,172.5,291.8,179.6,291.8,181z"/>
</svg>
