<?xml version="1.0" encoding="utf-8"?>
<!-- Generator: Adobe Illustrator 24.2.1, SVG Export Plug-In . SVG Version: 6.00 Build 0)  -->
<svg version="1.1" id="Layer_1" xmlns="http://www.w3.org/2000/svg" xmlns:xlink="http://www.w3.org/1999/xlink" x="0px" y="0px"
	 viewBox="0 0 362 362" style="enable-background:new 0 0 362 362;" xml:space="preserve">
<style type="text/css">
	.st0{fill:#F9873B;}
</style>
<path class="st0" d="M82.3,169.3L188.8,9.6C192.7,3.8,199,0,206.5,0h63.9c15.4,12.2,22.5,19.3,21.3,21.3c-0.9,1.5-6.3,0.3-16.1-3.6
	c-28.7,54.4-57.4,108.9-86.1,163.3c28.6,54.7,57.1,109.4,85.7,164.1c10.1-4.3,15.6-5.8,16.5-4.4c1.2,1.9-5.9,9-21.3,21.3h-63.9
	c-7.5,0-13.9-3.8-17.7-9.6L82.4,192.7c-2.4-3.2-8-10.5-8-11.7C74.4,179.6,80,172.5,82.3,169.3z"/>
</svg>
