<?xml version="1.0" encoding="utf-8"?>
<!-- Generator: Adobe Illustrator 24.2.1, SVG Export Plug-In . SVG Version: 6.00 Build 0)  -->
<svg version="1.1" id="Layer_2_1_" xmlns="http://www.w3.org/2000/svg" xmlns:xlink="http://www.w3.org/1999/xlink" x="0px" y="0px"
	 viewBox="0 0 512 512" style="enable-background:new 0 0 512 512;" xml:space="preserve">
<style type="text/css">
	.st0{fill:#FFFFFF;}
</style>
<path class="st0" d="M495.9,150.5c-9.9-5.6-22-5.3-31.6,0.8l-25.3,15.8c-25.3-9.2-50.8-19.4-75.8-30.5
	c-20.6-9.1-35.7-16.4-47.8-22.3c-26.6-13-38.8-18.9-59.6-18.4c-20.4,0.5-32.2,6.8-51.9,17.4c-11.6,6.2-26,13.9-47.2,23.3
	c-27.1,12.1-55.1,22.3-83.6,30.6l-25.5-15.9c-9.6-6.1-21.7-6.4-31.6-0.8C6.1,156-0.1,166.4,0,177.8V272c0,10.8,5.5,20.8,14.6,26.4
	L64,329.3v8.2c0,11.9,5.2,23.1,14.3,30.7c85.1,71,176.7,71.8,177.7,71.8c80.6,0,141.6-39.2,178.6-72.1c8.5-7.6,13.4-18.5,13.4-29.9
	v-5.5l49.4-30.8c9.1-5.7,14.7-15.7,14.6-26.4v-97.4C512.1,166.4,505.9,156,495.9,150.5z M23.1,284.9c-4.4-2.8-7.1-7.6-7.1-12.9
	v-94.2c0-8.4,6.8-15.2,15.2-15.2c2.8,0,5.6,0.8,8,2.3L64,180.4v130L23.1,284.9z M432,338c0,6.9-2.9,13.4-8,17.9
	C389.1,387,331.6,424,256,424c-23.9,0-100.5-12.2-167.4-68.1c-5.5-4.6-8.6-11.3-8.6-18.4V182c28.4-8.4,56.2-18.7,83.2-30.7
	c21.7-9.7,36.4-17.5,48.2-23.8c19.3-10.3,28.1-15.1,44.7-15.5c17-0.4,26.6,4.3,52.2,16.7c12.2,5.9,27.4,13.4,48.3,22.6
	c24.8,11,50.1,21.1,75.2,30.3L432,338z M496,275.2c0,5.2-2.7,10.1-7.1,12.9L448,313.6V180.4l24.8-15.5c7.1-4.4,16.5-2.3,20.9,4.8
	c1.5,2.4,2.3,5.2,2.3,8V275.2z"/>
<path class="st0" d="M122.7,224.5l-5.5,15C161.7,255.7,208.7,264,256,264c47.3,0,94.3-8.3,138.7-24.5l-5.5-15
	C346.6,240.1,301.5,248,256,248C210.5,248,165.4,240.1,122.7,224.5z"/>
<path class="st0" d="M256,320c-45.5,0-90.6-7.9-133.3-23.5l-5.5,15C161.7,327.7,208.7,336,256,336c47.3,0,94.3-8.3,138.7-24.5
	l-5.5-15C346.6,312.1,301.5,320,256,320z"/>
</svg>
